<svg id="visual" viewBox="0 0 900 600" width="900" height="600" xmlns="http://www.w3.org/2000/svg" xmlns:xlink="http://www.w3.org/1999/xlink" version="1.1"><path d="M0 49L6.5 55C13 61 26 73 39 66C52 59 65 33 78 34C91 35 104 63 117.2 70C130.3 77 143.7 63 156.8 55C170 47 183 45 196 39C209 33 222 23 235 21C248 19 261 25 274 26C287 27 300 23 313 32C326 41 339 63 352 72C365 81 378 77 391 69C404 61 417 49 430.2 41C443.3 33 456.7 29 469.8 24C483 19 496 13 509 19C522 25 535 43 548 52C561 61 574 61 587 67C600 73 613 85 626 85C639 85 652 73 665 56.8C678 40.7 691 20.3 704 19.3C717 18.3 730 36.7 743.2 46.8C756.3 57 769.7 59 782.8 57C796 55 809 49 822 53C835 57 848 71 861 76C874 81 887 77 893.5 75L900 73L900 0L893.5 0C887 0 874 0 861 0C848 0 835 0 822 0C809 0 796 0 782.8 0C769.7 0 756.3 0 743.2 0C730 0 717 0 704 0C691 0 678 0 665 0C652 0 639 0 626 0C613 0 600 0 587 0C574 0 561 0 548 0C535 0 522 0 509 0C496 0 483 0 469.8 0C456.7 0 443.3 0 430.2 0C417 0 404 0 391 0C378 0 365 0 352 0C339 0 326 0 313 0C300 0 287 0 274 0C261 0 248 0 235 0C222 0 209 0 196 0C183 0 170 0 156.8 0C143.7 0 130.3 0 117.2 0C104 0 91 0 78 0C65 0 52 0 39 0C26 0 13 0 6.5 0L0 0Z" fill="#fff571"></path><path d="M0 85L6.5 86C13 87 26 89 39 84C52 79 65 67 78 74C91 81 104 107 117.2 110C130.3 113 143.7 93 156.8 86C170 79 183 85 196 75C209 65 222 39 235 34C248 29 261 45 274 49C287 53 300 45 313 54C326 63 339 89 352 98C365 107 378 99 391 91C404 83 417 75 430.2 72C443.3 69 456.7 71 469.8 62C483 53 496 33 509 35C522 37 535 61 548 76C561 91 574 97 587 106C600 115 613 127 626 123C639 119 652 99 665 84C678 69 691 59 704 61C717 63 730 77 743.2 81C756.3 85 769.7 79 782.8 77C796 75 809 77 822 83C835 89 848 99 861 106C874 113 887 117 893.5 119L900 121L900 71L893.5 73C887 75 874 79 861 74C848 69 835 55 822 51C809 47 796 53 782.8 55C769.7 57 756.3 55 743.2 45.2C730 35.3 717 17.7 704 18.7C691 19.7 678 39.3 665 55.2C652 71 639 83 626 83C613 83 600 71 587 65C574 59 561 59 548 50C535 41 522 23 509 17C496 11 483 17 469.8 22C456.7 27 443.3 31 430.2 39C417 47 404 59 391 67C378 75 365 79 352 70C339 61 326 39 313 30C300 21 287 25 274 24C261 23 248 17 235 19C222 21 209 31 196 37C183 43 170 45 156.8 53C143.7 61 130.3 75 117.2 68C104 61 91 33 78 32C65 31 52 57 39 64C26 71 13 59 6.5 53L0 47Z" fill="#fff24f"></path><path d="M0 121L6.5 120C13 119 26 117 39 109C52 101 65 87 78 94C91 101 104 129 117.2 136C130.3 143 143.7 129 156.8 127C170 125 183 135 196 121C209 107 222 69 235 61C248 53 261 75 274 83C287 91 300 85 313 90C326 95 339 111 352 118C365 125 378 123 391 116C404 109 417 97 430.2 92C443.3 87 456.7 89 469.8 87C483 85 496 79 509 82C522 85 535 97 548 106C561 115 574 121 587 132C600 143 613 159 626 151C639 143 652 111 665 95C678 79 691 79 704 89C717 99 730 119 743.2 127C756.3 135 769.7 131 782.8 128C796 125 809 123 822 127C835 131 848 141 861 145C874 149 887 147 893.5 146L900 145L900 119L893.5 117C887 115 874 111 861 104C848 97 835 87 822 81C809 75 796 73 782.8 75C769.7 77 756.3 83 743.2 79C730 75 717 61 704 59C691 57 678 67 665 82C652 97 639 117 626 121C613 125 600 113 587 104C574 95 561 89 548 74C535 59 522 35 509 33C496 31 483 51 469.8 60C456.7 69 443.3 67 430.2 70C417 73 404 81 391 89C378 97 365 105 352 96C339 87 326 61 313 52C300 43 287 51 274 47C261 43 248 27 235 32C222 37 209 63 196 73C183 83 170 77 156.8 84C143.7 91 130.3 111 117.2 108C104 105 91 79 78 72C65 65 52 77 39 82C26 87 13 85 6.5 84L0 83Z" fill="#fff01b"></path><path d="M0 121L6.5 124C13 127 26 133 39 135C52 137 65 135 78 142C91 149 104 165 117.2 166C130.3 167 143.7 153 156.8 159C170 165 183 191 196 176C209 161 222 105 235 94C248 83 261 117 274 124C287 131 300 111 313 113C326 115 339 139 352 152C365 165 378 167 391 157C404 147 417 125 430.2 118C443.3 111 456.7 119 469.8 119C483 119 496 111 509 115C522 119 535 135 548 150C561 165 574 179 587 186C600 193 613 193 626 182C639 171 652 149 665 139C678 129 691 131 704 134C717 137 730 141 743.2 153C756.3 165 769.7 185 782.8 190C796 195 809 185 822 179C835 173 848 171 861 168C874 165 887 161 893.5 159L900 157L900 143L893.5 144C887 145 874 147 861 143C848 139 835 129 822 125C809 121 796 123 782.8 126C769.7 129 756.3 133 743.2 125C730 117 717 97 704 87C691 77 678 77 665 93C652 109 639 141 626 149C613 157 600 141 587 130C574 119 561 113 548 104C535 95 522 83 509 80C496 77 483 83 469.8 85C456.7 87 443.3 85 430.2 90C417 95 404 107 391 114C378 121 365 123 352 116C339 109 326 93 313 88C300 83 287 89 274 81C261 73 248 51 235 59C222 67 209 105 196 119C183 133 170 123 156.8 125C143.7 127 130.3 141 117.2 134C104 127 91 99 78 92C65 85 52 99 39 107C26 115 13 117 6.5 118L0 119Z" fill="#e5d701"></path><path d="M0 253L6.5 252C13 251 26 249 39 249C52 249 65 251 78 245C91 239 104 225 117.2 213C130.3 201 143.7 191 156.8 200C170 209 183 237 196 226C209 215 222 165 235 150C248 135 261 155 274 178C287 201 300 227 313 234C326 241 339 229 352 217C365 205 378 193 391 181C404 169 417 157 430.2 164C443.3 171 456.7 197 469.8 209C483 221 496 219 509 229C522 239 535 261 548 270C561 279 574 275 587 260C600 245 613 219 626 196C639 173 652 153 665 150C678 147 691 161 704 175C717 189 730 203 743.2 220C756.3 237 769.7 257 782.8 257C796 257 809 237 822 229C835 221 848 225 861 217C874 209 887 189 893.5 179L900 169L900 155L893.5 157C887 159 874 163 861 166C848 169 835 171 822 177C809 183 796 193 782.8 188C769.7 183 756.3 163 743.2 151C730 139 717 135 704 132C691 129 678 127 665 137C652 147 639 169 626 180C613 191 600 191 587 184C574 177 561 163 548 148C535 133 522 117 509 113C496 109 483 117 469.8 117C456.7 117 443.3 109 430.2 116C417 123 404 145 391 155C378 165 365 163 352 150C339 137 326 113 313 111C300 109 287 129 274 122C261 115 248 81 235 92C222 103 209 159 196 174C183 189 170 163 156.8 157C143.7 151 130.3 165 117.2 164C104 163 91 147 78 140C65 133 52 135 39 133C26 131 13 125 6.5 122L0 119Z" fill="#c6ba02"></path><path d="M0 265L6.5 262C13 259 26 253 39 251C52 249 65 251 78 246C91 241 104 229 117.2 220C130.3 211 143.7 205 156.8 216C170 227 183 255 196 249C209 243 222 203 235 188C248 173 261 183 274 205C287 227 300 261 313 272C326 283 339 271 352 256C365 241 378 223 391 210C404 197 417 189 430.2 200C443.3 211 456.7 241 469.8 247C483 253 496 235 509 237C522 239 535 261 548 272C561 283 574 283 587 270C600 257 613 231 626 210C639 189 652 173 665 172C678 171 691 185 704 202C717 219 730 239 743.2 254C756.3 269 769.7 279 782.8 272C796 265 809 241 822 232C835 223 848 229 861 226C874 223 887 211 893.5 205L900 199L900 167L893.5 177C887 187 874 207 861 215C848 223 835 219 822 227C809 235 796 255 782.8 255C769.7 255 756.3 235 743.2 218C730 201 717 187 704 173C691 159 678 145 665 148C652 151 639 171 626 194C613 217 600 243 587 258C574 273 561 277 548 268C535 259 522 237 509 227C496 217 483 219 469.8 207C456.7 195 443.3 169 430.2 162C417 155 404 167 391 179C378 191 365 203 352 215C339 227 326 239 313 232C300 225 287 199 274 176C261 153 248 133 235 148C222 163 209 213 196 224C183 235 170 207 156.8 198C143.7 189 130.3 199 117.2 211C104 223 91 237 78 243C65 249 52 247 39 247C26 247 13 249 6.5 250L0 251Z" fill="#baaf02"></path><path d="M0 391L6.5 381C13 371 26 351 39 328C52 305 65 279 78 284C91 289 104 325 117.2 354C130.3 383 143.7 405 156.8 406C170 407 183 387 196 385C209 383 222 399 235 395C248 391 261 367 274 379C287 391 300 439 313 446C326 453 339 419 352 388C365 357 378 329 391 298C404 267 417 233 430.2 243C443.3 253 456.7 307 469.8 331C483 355 496 349 509 357C522 365 535 387 548 380C561 373 574 337 587 337C600 337 613 373 626 385C639 397 652 385 665 376C678 367 691 361 704 351C717 341 730 327 743.2 324C756.3 321 769.7 329 782.8 344C796 359 809 381 822 375C835 369 848 335 861 339C874 343 887 385 893.5 406L900 427L900 197L893.5 203C887 209 874 221 861 224C848 227 835 221 822 230C809 239 796 263 782.8 270C769.7 277 756.3 267 743.2 252C730 237 717 217 704 200C691 183 678 169 665 170C652 171 639 187 626 208C613 229 600 255 587 268C574 281 561 281 548 270C535 259 522 237 509 235C496 233 483 251 469.8 245C456.7 239 443.3 209 430.2 198C417 187 404 195 391 208C378 221 365 239 352 254C339 269 326 281 313 270C300 259 287 225 274 203C261 181 248 171 235 186C222 201 209 241 196 247C183 253 170 225 156.8 214C143.7 203 130.3 209 117.2 218C104 227 91 239 78 244C65 249 52 247 39 249C26 251 13 257 6.5 260L0 263Z" fill="#baaf02"></path><path d="M0 433L6.5 425C13 417 26 401 39 377C52 353 65 321 78 319C91 317 104 345 117.2 369C130.3 393 143.7 413 156.8 417C170 421 183 409 196 407C209 405 222 413 235 406C248 399 261 377 274 397C287 417 300 479 313 485C326 491 339 441 352 402C365 363 378 335 391 306C404 277 417 247 430.2 262C443.3 277 456.7 337 469.8 362C483 387 496 377 509 381C522 385 535 403 548 403C561 403 574 385 587 384C600 383 613 399 626 400C639 401 652 387 665 386C678 385 691 397 704 389C717 381 730 353 743.2 345C756.3 337 769.7 349 782.8 364C796 379 809 397 822 395C835 393 848 371 861 373C874 375 887 401 893.5 414L900 427L900 425L893.5 404C887 383 874 341 861 337C848 333 835 367 822 373C809 379 796 357 782.8 342C769.7 327 756.3 319 743.2 322C730 325 717 339 704 349C691 359 678 365 665 374C652 383 639 395 626 383C613 371 600 335 587 335C574 335 561 371 548 378C535 385 522 363 509 355C496 347 483 353 469.8 329C456.7 305 443.3 251 430.2 241C417 231 404 265 391 296C378 327 365 355 352 386C339 417 326 451 313 444C300 437 287 389 274 377C261 365 248 389 235 393C222 397 209 381 196 383C183 385 170 405 156.8 404C143.7 403 130.3 381 117.2 352C104 323 91 287 78 282C65 277 52 303 39 326C26 349 13 369 6.5 379L0 389Z" fill="#c6ba02"></path><path d="M0 469L6.5 463C13 457 26 445 39 422C52 399 65 365 78 369C91 373 104 415 117.2 452C130.3 489 143.7 521 156.8 521C170 521 183 489 196 477C209 465 222 473 235 461C248 449 261 417 274 428C287 439 300 493 313 501C326 509 339 471 352 439C365 407 378 381 391 360C404 339 417 323 430.2 338C443.3 353 456.7 399 469.8 423C483 447 496 449 509 455C522 461 535 471 548 471C561 471 574 461 587 458C600 455 613 459 626 449C639 439 652 415 665 406C678 397 691 403 704 401C717 399 730 389 743.2 395C756.3 401 769.7 423 782.8 440C796 457 809 469 822 464C835 459 848 437 861 441C874 445 887 475 893.5 490L900 505L900 425L893.5 412C887 399 874 373 861 371C848 369 835 391 822 393C809 395 796 377 782.8 362C769.7 347 756.3 335 743.2 343C730 351 717 379 704 387C691 395 678 383 665 384C652 385 639 399 626 398C613 397 600 381 587 382C574 383 561 401 548 401C535 401 522 383 509 379C496 375 483 385 469.8 360C456.7 335 443.3 275 430.2 260C417 245 404 275 391 304C378 333 365 361 352 400C339 439 326 489 313 483C300 477 287 415 274 395C261 375 248 397 235 404C222 411 209 403 196 405C183 407 170 419 156.8 415C143.7 411 130.3 391 117.2 367C104 343 91 315 78 317C65 319 52 351 39 375C26 399 13 415 6.5 423L0 431Z" fill="#e5d701"></path><path d="M0 523L6.5 517C13 511 26 499 39 468C52 437 65 387 78 382C91 377 104 417 117.2 455C130.3 493 143.7 529 156.8 532C170 535 183 505 196 496C209 487 222 499 235 489C248 479 261 447 274 453C287 459 300 503 313 508C326 513 339 479 352 456C365 433 378 421 391 403C404 385 417 361 430.2 367C443.3 373 456.7 409 469.8 428C483 447 496 449 509 459C522 469 535 487 548 489C561 491 574 477 587 477C600 477 613 491 626 487C639 483 652 461 665 448C678 435 691 431 704 422C717 413 730 399 743.2 404C756.3 409 769.7 433 782.8 451C796 469 809 481 822 480C835 479 848 465 861 472C874 479 887 507 893.5 521L900 535L900 503L893.5 488C887 473 874 443 861 439C848 435 835 457 822 462C809 467 796 455 782.8 438C769.7 421 756.3 399 743.2 393C730 387 717 397 704 399C691 401 678 395 665 404C652 413 639 437 626 447C613 457 600 453 587 456C574 459 561 469 548 469C535 469 522 459 509 453C496 447 483 445 469.8 421C456.7 397 443.3 351 430.2 336C417 321 404 337 391 358C378 379 365 405 352 437C339 469 326 507 313 499C300 491 287 437 274 426C261 415 248 447 235 459C222 471 209 463 196 475C183 487 170 519 156.8 519C143.7 519 130.3 487 117.2 450C104 413 91 371 78 367C65 363 52 397 39 420C26 443 13 455 6.5 461L0 467Z" fill="#fff01b"></path><path d="M0 523L6.5 523C13 523 26 523 39 503C52 483 65 443 78 443C91 443 104 483 117.2 514C130.3 545 143.7 567 156.8 566C170 565 183 541 196 536C209 531 222 545 235 536C248 527 261 495 274 497C287 499 300 535 313 535C326 535 339 499 352 479C365 459 378 455 391 434C404 413 417 375 430.2 375C443.3 375 456.7 413 469.8 437C483 461 496 471 509 493C522 515 535 549 548 551C561 553 574 523 587 510C600 497 613 501 626 498C639 495 652 485 665 472C678 459 691 443 704 434C717 425 730 423 743.2 430C756.3 437 769.7 453 782.8 468C796 483 809 497 822 505C835 513 848 515 861 525C874 535 887 553 893.5 562L900 571L900 533L893.5 519C887 505 874 477 861 470C848 463 835 477 822 478C809 479 796 467 782.8 449C769.7 431 756.3 407 743.2 402C730 397 717 411 704 420C691 429 678 433 665 446C652 459 639 481 626 485C613 489 600 475 587 475C574 475 561 489 548 487C535 485 522 467 509 457C496 447 483 445 469.8 426C456.7 407 443.3 371 430.2 365C417 359 404 383 391 401C378 419 365 431 352 454C339 477 326 511 313 506C300 501 287 457 274 451C261 445 248 477 235 487C222 497 209 485 196 494C183 503 170 533 156.8 530C143.7 527 130.3 491 117.2 453C104 415 91 375 78 380C65 385 52 435 39 466C26 497 13 509 6.5 515L0 521Z" fill="#fff24f"></path><path d="M0 601L6.5 601C13 601 26 601 39 601C52 601 65 601 78 601C91 601 104 601 117.2 601C130.3 601 143.7 601 156.8 601C170 601 183 601 196 601C209 601 222 601 235 601C248 601 261 601 274 601C287 601 300 601 313 601C326 601 339 601 352 601C365 601 378 601 391 601C404 601 417 601 430.2 601C443.3 601 456.7 601 469.8 601C483 601 496 601 509 601C522 601 535 601 548 601C561 601 574 601 587 601C600 601 613 601 626 601C639 601 652 601 665 601C678 601 691 601 704 601C717 601 730 601 743.2 601C756.3 601 769.7 601 782.8 601C796 601 809 601 822 601C835 601 848 601 861 601C874 601 887 601 893.5 601L900 601L900 569L893.5 560C887 551 874 533 861 523C848 513 835 511 822 503C809 495 796 481 782.8 466C769.7 451 756.3 435 743.2 428C730 421 717 423 704 432C691 441 678 457 665 470C652 483 639 493 626 496C613 499 600 495 587 508C574 521 561 551 548 549C535 547 522 513 509 491C496 469 483 459 469.8 435C456.7 411 443.3 373 430.2 373C417 373 404 411 391 432C378 453 365 457 352 477C339 497 326 533 313 533C300 533 287 497 274 495C261 493 248 525 235 534C222 543 209 529 196 534C183 539 170 563 156.8 564C143.7 565 130.3 543 117.2 512C104 481 91 441 78 441C65 441 52 481 39 501C26 521 13 521 6.5 521L0 521Z" fill="#fff571"></path></svg>