<svg id="visual" viewBox="0 0 900 600" width="900" height="600" xmlns="http://www.w3.org/2000/svg" xmlns:xlink="http://www.w3.org/1999/xlink" version="1.1"><path d="M0 7L6.5 7C13 7 26 7 39 14C52 21 65 35 78 37C91 39 104 29 117.2 23C130.3 17 143.7 15 156.8 14C170 13 183 13 196 12C209 11 222 9 235 13C248 17 261 27 274 27C287 27 300 17 313 10.8C326 4.7 339 2.3 352 1.2C365 0 378 0 391 4.2C404 8.3 417 16.7 430.2 22.8C443.3 29 456.7 33 469.8 31C483 29 496 21 509 17C522 13 535 13 548 17C561 21 574 29 587 31C600 33 613 29 626 28C639 27 652 29 665 33C678 37 691 43 704 37.8C717 32.7 730 16.3 743.2 8.2C756.3 0 769.7 0 782.8 5.2C796 10.3 809 20.7 822 21.8C835 23 848 15 861 14C874 13 887 19 893.5 22L900 25L900 0L893.5 0C887 0 874 0 861 0C848 0 835 0 822 0C809 0 796 0 782.8 0C769.7 0 756.3 0 743.2 0C730 0 717 0 704 0C691 0 678 0 665 0C652 0 639 0 626 0C613 0 600 0 587 0C574 0 561 0 548 0C535 0 522 0 509 0C496 0 483 0 469.8 0C456.7 0 443.3 0 430.2 0C417 0 404 0 391 0C378 0 365 0 352 0C339 0 326 0 313 0C300 0 287 0 274 0C261 0 248 0 235 0C222 0 209 0 196 0C183 0 170 0 156.8 0C143.7 0 130.3 0 117.2 0C104 0 91 0 78 0C65 0 52 0 39 0C26 0 13 0 6.5 0L0 0Z" fill="#72a0ff"></path><path d="M0 193L6.5 168C13 143 26 93 39 107C52 121 65 199 78 238C91 277 104 277 117.2 235C130.3 193 143.7 109 156.8 87C170 65 183 105 196 120C209 135 222 125 235 144C248 163 261 211 274 206C287 201 300 143 313 117C326 91 339 97 352 91C365 85 378 67 391 62C404 57 417 65 430.2 65C443.3 65 456.7 57 469.8 60C483 63 496 77 509 93C522 109 535 127 548 136C561 145 574 145 587 142C600 139 613 133 626 149C639 165 652 203 665 203C678 203 691 165 704 126C717 87 730 47 743.2 38C756.3 29 769.7 51 782.8 73C796 95 809 117 822 131C835 145 848 151 861 155C874 159 887 161 893.5 162L900 163L900 23L893.5 20C887 17 874 11 861 12C848 13 835 21 822 20.2C809 19.3 796 9.7 782.8 4.8C769.7 0 756.3 0 743.2 7.8C730 15.7 717 31.3 704 36.2C691 41 678 35 665 31C652 27 639 25 626 26C613 27 600 31 587 29C574 27 561 19 548 15C535 11 522 11 509 15C496 19 483 27 469.8 29C456.7 31 443.3 27 430.2 21.2C417 15.3 404 7.7 391 3.8C378 0 365 0 352 0.8C339 1.7 326 3.3 313 9.2C300 15 287 25 274 25C261 25 248 15 235 11C222 7 209 9 196 10C183 11 170 11 156.8 12C143.7 13 130.3 15 117.2 21C104 27 91 37 78 35C65 33 52 19 39 12C26 5 13 5 6.5 5L0 5Z" fill="#538dff"></path><path d="M0 253L6.5 249C13 245 26 237 39 256C52 275 65 321 78 336C91 351 104 335 117.2 305C130.3 275 143.7 231 156.8 212C170 193 183 199 196 193C209 187 222 169 235 184C248 199 261 247 274 256C287 265 300 235 313 230C326 225 339 245 352 239C365 233 378 201 391 203C404 205 417 241 430.2 245C443.3 249 456.7 221 469.8 227C483 233 496 273 509 278C522 283 535 253 548 251C561 249 574 275 587 266C600 257 613 213 626 208C639 203 652 237 665 259C678 281 691 291 704 278C717 265 730 229 743.2 217C756.3 205 769.7 217 782.8 223C796 229 809 229 822 230C835 231 848 233 861 238C874 243 887 251 893.5 255L900 259L900 161L893.5 160C887 159 874 157 861 153C848 149 835 143 822 129C809 115 796 93 782.8 71C769.7 49 756.3 27 743.2 36C730 45 717 85 704 124C691 163 678 201 665 201C652 201 639 163 626 147C613 131 600 137 587 140C574 143 561 143 548 134C535 125 522 107 509 91C496 75 483 61 469.8 58C456.7 55 443.3 63 430.2 63C417 63 404 55 391 60C378 65 365 83 352 89C339 95 326 89 313 115C300 141 287 199 274 204C261 209 248 161 235 142C222 123 209 133 196 118C183 103 170 63 156.8 85C143.7 107 130.3 191 117.2 233C104 275 91 275 78 236C65 197 52 119 39 105C26 91 13 141 6.5 166L0 191Z" fill="#2b79fe"></path><path d="M0 253L6.5 267C13 281 26 309 39 336C52 363 65 389 78 386C91 383 104 351 117.2 321C130.3 291 143.7 263 156.8 250C170 237 183 239 196 230C209 221 222 201 235 211C248 221 261 261 274 275C287 289 300 277 313 277C326 277 339 289 352 283C365 277 378 253 391 264C404 275 417 321 430.2 323C443.3 325 456.7 283 469.8 281C483 279 496 317 509 327C522 337 535 319 548 321C561 323 574 345 587 334C600 323 613 279 626 270C639 261 652 287 665 308C678 329 691 345 704 327C717 309 730 257 743.2 246C756.3 235 769.7 265 782.8 282C796 299 809 303 822 301C835 299 848 291 861 286C874 281 887 279 893.5 278L900 277L900 257L893.5 253C887 249 874 241 861 236C848 231 835 229 822 228C809 227 796 227 782.8 221C769.7 215 756.3 203 743.2 215C730 227 717 263 704 276C691 289 678 279 665 257C652 235 639 201 626 206C613 211 600 255 587 264C574 273 561 247 548 249C535 251 522 281 509 276C496 271 483 231 469.8 225C456.7 219 443.3 247 430.2 243C417 239 404 203 391 201C378 199 365 231 352 237C339 243 326 223 313 228C300 233 287 263 274 254C261 245 248 197 235 182C222 167 209 185 196 191C183 197 170 191 156.8 210C143.7 229 130.3 273 117.2 303C104 333 91 349 78 334C65 319 52 273 39 254C26 235 13 243 6.5 247L0 251Z" fill="#1969e6"></path><path d="M0 277L6.5 291C13 305 26 333 39 359C52 385 65 409 78 406C91 403 104 373 117.2 347C130.3 321 143.7 299 156.8 285C170 271 183 265 196 250C209 235 222 211 235 224C248 237 261 287 274 308C287 329 300 321 313 318C326 315 339 317 352 303C365 289 378 259 391 275C404 291 417 353 430.2 362C443.3 371 456.7 327 469.8 323C483 319 496 355 509 360C522 365 535 339 548 340C561 341 574 369 587 363C600 357 613 317 626 304C639 291 652 305 665 327C678 349 691 379 704 369C717 359 730 309 743.2 294C756.3 279 769.7 299 782.8 310C796 321 809 323 822 317C835 311 848 297 861 296C874 295 887 307 893.5 313L900 319L900 275L893.5 276C887 277 874 279 861 284C848 289 835 297 822 299C809 301 796 297 782.8 280C769.7 263 756.3 233 743.2 244C730 255 717 307 704 325C691 343 678 327 665 306C652 285 639 259 626 268C613 277 600 321 587 332C574 343 561 321 548 319C535 317 522 335 509 325C496 315 483 277 469.8 279C456.7 281 443.3 323 430.2 321C417 319 404 273 391 262C378 251 365 275 352 281C339 287 326 275 313 275C300 275 287 287 274 273C261 259 248 219 235 209C222 199 209 219 196 228C183 237 170 235 156.8 248C143.7 261 130.3 289 117.2 319C104 349 91 381 78 384C65 387 52 361 39 334C26 307 13 279 6.5 265L0 251Z" fill="#115bc9"></path><path d="M0 391L6.5 405C13 419 26 447 39 461C52 475 65 475 78 462C91 449 104 423 117.2 400C130.3 377 143.7 357 156.8 336C170 315 183 293 196 287C209 281 222 291 235 305C248 319 261 337 274 349C287 361 300 367 313 370C326 373 339 373 352 354C365 335 378 297 391 317C404 337 417 415 430.2 436C443.3 457 456.7 421 469.8 414C483 407 496 429 509 424C522 419 535 387 548 384C561 381 574 407 587 397C600 387 613 341 626 332C639 323 652 351 665 371C678 391 691 403 704 389C717 375 730 335 743.2 319C756.3 303 769.7 311 782.8 332C796 353 809 387 822 397C835 407 848 393 861 382C874 371 887 363 893.5 359L900 355L900 317L893.5 311C887 305 874 293 861 294C848 295 835 309 822 315C809 321 796 319 782.8 308C769.7 297 756.3 277 743.2 292C730 307 717 357 704 367C691 377 678 347 665 325C652 303 639 289 626 302C613 315 600 355 587 361C574 367 561 339 548 338C535 337 522 363 509 358C496 353 483 317 469.8 321C456.7 325 443.3 369 430.2 360C417 351 404 289 391 273C378 257 365 287 352 301C339 315 326 313 313 316C300 319 287 327 274 306C261 285 248 235 235 222C222 209 209 233 196 248C183 263 170 269 156.8 283C143.7 297 130.3 319 117.2 345C104 371 91 401 78 404C65 407 52 383 39 357C26 331 13 303 6.5 289L0 275Z" fill="#0e55bd"></path><path d="M0 397L6.5 415C13 433 26 469 39 483C52 497 65 489 78 471C91 453 104 425 117.2 409C130.3 393 143.7 389 156.8 369C170 349 183 313 196 305C209 297 222 317 235 339C248 361 261 385 274 400C287 415 300 421 313 425C326 429 339 431 352 405C365 379 378 325 391 339C404 353 417 435 430.2 462C443.3 489 456.7 461 469.8 451C483 441 496 449 509 438C522 427 535 397 548 402C561 407 574 447 587 443C600 439 613 391 626 379C639 367 652 391 665 406C678 421 691 427 704 412C717 397 730 361 743.2 351C756.3 341 769.7 357 782.8 377C796 397 809 421 822 422C835 423 848 401 861 396C874 391 887 403 893.5 409L900 415L900 353L893.5 357C887 361 874 369 861 380C848 391 835 405 822 395C809 385 796 351 782.8 330C769.7 309 756.3 301 743.2 317C730 333 717 373 704 387C691 401 678 389 665 369C652 349 639 321 626 330C613 339 600 385 587 395C574 405 561 379 548 382C535 385 522 417 509 422C496 427 483 405 469.8 412C456.7 419 443.3 455 430.2 434C417 413 404 335 391 315C378 295 365 333 352 352C339 371 326 371 313 368C300 365 287 359 274 347C261 335 248 317 235 303C222 289 209 279 196 285C183 291 170 313 156.8 334C143.7 355 130.3 375 117.2 398C104 421 91 447 78 460C65 473 52 473 39 459C26 445 13 417 6.5 403L0 389Z" fill="#0e55bd"></path><path d="M0 421L6.5 436C13 451 26 481 39 496C52 511 65 511 78 492C91 473 104 435 117.2 418C130.3 401 143.7 405 156.8 397C170 389 183 369 196 362C209 355 222 361 235 380C248 399 261 431 274 450C287 469 300 475 313 473C326 471 339 461 352 433C365 405 378 359 391 375C404 391 417 469 430.2 490C443.3 511 456.7 475 469.8 472C483 469 496 499 509 497C522 495 535 461 548 461C561 461 574 495 587 490C600 485 613 441 626 428C639 415 652 433 665 448C678 463 691 475 704 466C717 457 730 427 743.2 411C756.3 395 769.7 393 782.8 411C796 429 809 467 822 466C835 465 848 425 861 410C874 395 887 405 893.5 410L900 415L900 413L893.5 407C887 401 874 389 861 394C848 399 835 421 822 420C809 419 796 395 782.8 375C769.7 355 756.3 339 743.2 349C730 359 717 395 704 410C691 425 678 419 665 404C652 389 639 365 626 377C613 389 600 437 587 441C574 445 561 405 548 400C535 395 522 425 509 436C496 447 483 439 469.8 449C456.7 459 443.3 487 430.2 460C417 433 404 351 391 337C378 323 365 377 352 403C339 429 326 427 313 423C300 419 287 413 274 398C261 383 248 359 235 337C222 315 209 295 196 303C183 311 170 347 156.8 367C143.7 387 130.3 391 117.2 407C104 423 91 451 78 469C65 487 52 495 39 481C26 467 13 431 6.5 413L0 395Z" fill="#115bc9"></path><path d="M0 475L6.5 490C13 505 26 535 39 544C52 553 65 541 78 516C91 491 104 453 117.2 442C130.3 431 143.7 447 156.8 443C170 439 183 415 196 404C209 393 222 395 235 408C248 421 261 445 274 464C287 483 300 497 313 501C326 505 339 499 352 474C365 449 378 405 391 416C404 427 417 493 430.2 509C443.3 525 456.7 491 469.8 488C483 485 496 513 509 514C522 515 535 489 548 493C561 497 574 531 587 523C600 515 613 465 626 452C639 439 652 463 665 479C678 495 691 503 704 494C717 485 730 459 743.2 445C756.3 431 769.7 429 782.8 443C796 457 809 487 822 480C835 473 848 429 861 418C874 407 887 429 893.5 440L900 451L900 413L893.5 408C887 403 874 393 861 408C848 423 835 463 822 464C809 465 796 427 782.8 409C769.7 391 756.3 393 743.2 409C730 425 717 455 704 464C691 473 678 461 665 446C652 431 639 413 626 426C613 439 600 483 587 488C574 493 561 459 548 459C535 459 522 493 509 495C496 497 483 467 469.8 470C456.7 473 443.3 509 430.2 488C417 467 404 389 391 373C378 357 365 403 352 431C339 459 326 469 313 471C300 473 287 467 274 448C261 429 248 397 235 378C222 359 209 353 196 360C183 367 170 387 156.8 395C143.7 403 130.3 399 117.2 416C104 433 91 471 78 490C65 509 52 509 39 494C26 479 13 449 6.5 434L0 419Z" fill="#1969e6"></path><path d="M0 553L6.5 555C13 557 26 561 39 562C52 563 65 561 78 540C91 519 104 479 117.2 475C130.3 471 143.7 503 156.8 499C170 495 183 455 196 439C209 423 222 431 235 440C248 449 261 459 274 472C287 485 300 501 313 512C326 523 339 529 352 517C365 505 378 475 391 481C404 487 417 529 430.2 538C443.3 547 456.7 523 469.8 519C483 515 496 531 509 536C522 541 535 535 548 539C561 543 574 557 587 546C600 535 613 499 626 499C639 499 652 535 665 553C678 571 691 571 704 560C717 549 730 527 743.2 503C756.3 479 769.7 453 782.8 457C796 461 809 495 822 504C835 513 848 497 861 484C874 471 887 461 893.5 456L900 451L900 449L893.5 438C887 427 874 405 861 416C848 427 835 471 822 478C809 485 796 455 782.8 441C769.7 427 756.3 429 743.2 443C730 457 717 483 704 492C691 501 678 493 665 477C652 461 639 437 626 450C613 463 600 513 587 521C574 529 561 495 548 491C535 487 522 513 509 512C496 511 483 483 469.8 486C456.7 489 443.3 523 430.2 507C417 491 404 425 391 414C378 403 365 447 352 472C339 497 326 503 313 499C300 495 287 481 274 462C261 443 248 419 235 406C222 393 209 391 196 402C183 413 170 437 156.8 441C143.7 445 130.3 429 117.2 440C104 451 91 489 78 514C65 539 52 551 39 542C26 533 13 503 6.5 488L0 473Z" fill="#2b79fe"></path><path d="M0 601L6.5 596C13 591 26 581 39 580C52 579 65 587 78 565C91 543 104 491 117.2 483C130.3 475 143.7 511 156.8 516C170 521 183 495 196 486C209 477 222 485 235 485C248 485 261 477 274 489C287 501 300 533 313 549C326 565 339 565 352 551C365 537 378 509 391 514C404 519 417 557 430.2 566C443.3 575 456.7 555 469.8 547C483 539 496 543 509 542C522 541 535 535 548 543C561 551 574 573 587 568C600 563 613 531 626 528C639 525 652 551 665 568C678 585 691 593 704 583C717 573 730 545 743.2 520C756.3 495 769.7 473 782.8 483C796 493 809 535 822 547C835 559 848 541 861 525C874 509 887 495 893.5 488L900 481L900 449L893.5 454C887 459 874 469 861 482C848 495 835 511 822 502C809 493 796 459 782.8 455C769.7 451 756.3 477 743.2 501C730 525 717 547 704 558C691 569 678 569 665 551C652 533 639 497 626 497C613 497 600 533 587 544C574 555 561 541 548 537C535 533 522 539 509 534C496 529 483 513 469.8 517C456.7 521 443.3 545 430.2 536C417 527 404 485 391 479C378 473 365 503 352 515C339 527 326 521 313 510C300 499 287 483 274 470C261 457 248 447 235 438C222 429 209 421 196 437C183 453 170 493 156.8 497C143.7 501 130.3 469 117.2 473C104 477 91 517 78 538C65 559 52 561 39 560C26 559 13 555 6.5 553L0 551Z" fill="#538dff"></path><path d="M0 601L6.5 601C13 601 26 601 39 601C52 601 65 601 78 601C91 601 104 601 117.2 601C130.3 601 143.7 601 156.8 601C170 601 183 601 196 601C209 601 222 601 235 601C248 601 261 601 274 601C287 601 300 601 313 601C326 601 339 601 352 601C365 601 378 601 391 601C404 601 417 601 430.2 601C443.3 601 456.7 601 469.8 601C483 601 496 601 509 601C522 601 535 601 548 601C561 601 574 601 587 601C600 601 613 601 626 601C639 601 652 601 665 601C678 601 691 601 704 601C717 601 730 601 743.2 601C756.3 601 769.7 601 782.8 601C796 601 809 601 822 601C835 601 848 601 861 601C874 601 887 601 893.5 601L900 601L900 479L893.5 486C887 493 874 507 861 523C848 539 835 557 822 545C809 533 796 491 782.8 481C769.7 471 756.3 493 743.2 518C730 543 717 571 704 581C691 591 678 583 665 566C652 549 639 523 626 526C613 529 600 561 587 566C574 571 561 549 548 541C535 533 522 539 509 540C496 541 483 537 469.8 545C456.7 553 443.3 573 430.2 564C417 555 404 517 391 512C378 507 365 535 352 549C339 563 326 563 313 547C300 531 287 499 274 487C261 475 248 483 235 483C222 483 209 475 196 484C183 493 170 519 156.8 514C143.7 509 130.3 473 117.2 481C104 489 91 541 78 563C65 585 52 577 39 578C26 579 13 589 6.5 594L0 599Z" fill="#72a0ff"></path></svg>