<svg id="visual" viewBox="0 0 900 600" width="900" height="600" xmlns="http://www.w3.org/2000/svg" xmlns:xlink="http://www.w3.org/1999/xlink" version="1.1"><path d="M0 31L6.5 27C13 23 26 15 39 13C52 11 65 15 78 17C91 19 104 19 117.2 17C130.3 15 143.7 11 156.8 13C170 15 183 23 196 27C209 31 222 31 235 28C248 25 261 19 274 13.8C287 8.7 300 4.3 313 7.3C326 10.3 339 20.7 352 20.7C365 20.7 378 10.3 391 6.3C404 2.3 417 4.7 430.2 9.8C443.3 15 456.7 23 469.8 30C483 37 496 43 509 48C522 53 535 57 548 53C561 49 574 37 587 26.8C600 16.7 613 8.3 626 10.3C639 12.3 652 24.7 665 27.8C678 31 691 25 704 23C717 21 730 23 743.2 25C756.3 27 769.7 29 782.8 30C796 31 809 31 822 29C835 27 848 23 861 21C874 19 887 19 893.5 19L900 19L900 0L893.5 0C887 0 874 0 861 0C848 0 835 0 822 0C809 0 796 0 782.8 0C769.7 0 756.3 0 743.2 0C730 0 717 0 704 0C691 0 678 0 665 0C652 0 639 0 626 0C613 0 600 0 587 0C574 0 561 0 548 0C535 0 522 0 509 0C496 0 483 0 469.8 0C456.7 0 443.3 0 430.2 0C417 0 404 0 391 0C378 0 365 0 352 0C339 0 326 0 313 0C300 0 287 0 274 0C261 0 248 0 235 0C222 0 209 0 196 0C183 0 170 0 156.8 0C143.7 0 130.3 0 117.2 0C104 0 91 0 78 0C65 0 52 0 39 0C26 0 13 0 6.5 0L0 0Z" fill="#ffaa5a"></path><path d="M0 73L6.5 70C13 67 26 61 39 59C52 57 65 59 78 57C91 55 104 49 117.2 41C130.3 33 143.7 23 156.8 29C170 35 183 57 196 64C209 71 222 63 235 56C248 49 261 43 274 42C287 41 300 45 313 45C326 45 339 41 352 38C365 35 378 33 391 33C404 33 417 35 430.2 42C443.3 49 456.7 61 469.8 70C483 79 496 85 509 88C522 91 535 91 548 80C561 69 574 47 587 40C600 33 613 41 626 43C639 45 652 41 665 42C678 43 691 49 704 51C717 53 730 51 743.2 51C756.3 51 769.7 53 782.8 52C796 51 809 47 822 42C835 37 848 31 861 29C874 27 887 29 893.5 30L900 31L900 17L893.5 17C887 17 874 17 861 19C848 21 835 25 822 27C809 29 796 29 782.8 28C769.7 27 756.3 25 743.2 23C730 21 717 19 704 21C691 23 678 29 665 26.2C652 23.3 639 11.7 626 9.7C613 7.7 600 15.3 587 25.2C574 35 561 47 548 51C535 55 522 51 509 46C496 41 483 35 469.8 28C456.7 21 443.3 13 430.2 8.2C417 3.3 404 1.7 391 5.7C378 9.7 365 19.3 352 19.3C339 19.3 326 9.7 313 6.7C300 3.7 287 7.3 274 12.2C261 17 248 23 235 26C222 29 209 29 196 25C183 21 170 13 156.8 11C143.7 9 130.3 13 117.2 15C104 17 91 17 78 15C65 13 52 9 39 11C26 13 13 21 6.5 25L0 29Z" fill="#ff973a"></path><path d="M0 97L6.5 91C13 85 26 73 39 81C52 89 65 117 78 126C91 135 104 125 117.2 111C130.3 97 143.7 79 156.8 82C170 85 183 109 196 115C209 121 222 109 235 101C248 93 261 89 274 91C287 93 300 101 313 100C326 99 339 89 352 79C365 69 378 59 391 62C404 65 417 81 430.2 88C443.3 95 456.7 93 469.8 99C483 105 496 119 509 120C522 121 535 109 548 101C561 93 574 89 587 92C600 95 613 105 626 100C639 95 652 75 665 76C678 77 691 99 704 107C717 115 730 109 743.2 104C756.3 99 769.7 95 782.8 94C796 93 809 95 822 88C835 81 848 65 861 64C874 63 887 77 893.5 84L900 91L900 29L893.5 28C887 27 874 25 861 27C848 29 835 35 822 40C809 45 796 49 782.8 50C769.7 51 756.3 49 743.2 49C730 49 717 51 704 49C691 47 678 41 665 40C652 39 639 43 626 41C613 39 600 31 587 38C574 45 561 67 548 78C535 89 522 89 509 86C496 83 483 77 469.8 68C456.7 59 443.3 47 430.2 40C417 33 404 31 391 31C378 31 365 33 352 36C339 39 326 43 313 43C300 43 287 39 274 40C261 41 248 47 235 54C222 61 209 69 196 62C183 55 170 33 156.8 27C143.7 21 130.3 31 117.2 39C104 47 91 53 78 55C65 57 52 55 39 57C26 59 13 65 6.5 68L0 71Z" fill="#ff8310"></path><path d="M0 121L6.5 120C13 119 26 117 39 128C52 139 65 163 78 169C91 175 104 163 117.2 150C130.3 137 143.7 123 156.8 127C170 131 183 153 196 160C209 167 222 159 235 144C248 129 261 107 274 111C287 115 300 145 313 148C326 151 339 127 352 108C365 89 378 75 391 81C404 87 417 113 430.2 128C443.3 143 456.7 147 469.8 152C483 157 496 163 509 158C522 153 535 137 548 130C561 123 574 125 587 132C600 139 613 151 626 140C639 129 652 95 665 99C678 103 691 145 704 152C717 159 730 131 743.2 122C756.3 113 769.7 123 782.8 131C796 139 809 145 822 139C835 133 848 115 861 114C874 113 887 129 893.5 137L900 145L900 89L893.5 82C887 75 874 61 861 62C848 63 835 79 822 86C809 93 796 91 782.8 92C769.7 93 756.3 97 743.2 102C730 107 717 113 704 105C691 97 678 75 665 74C652 73 639 93 626 98C613 103 600 93 587 90C574 87 561 91 548 99C535 107 522 119 509 118C496 117 483 103 469.8 97C456.7 91 443.3 93 430.2 86C417 79 404 63 391 60C378 57 365 67 352 77C339 87 326 97 313 98C300 99 287 91 274 89C261 87 248 91 235 99C222 107 209 119 196 113C183 107 170 83 156.8 80C143.7 77 130.3 95 117.2 109C104 123 91 133 78 124C65 115 52 87 39 79C26 71 13 83 6.5 89L0 95Z" fill="#e57302"></path><path d="M0 121L6.5 120C13 119 26 117 39 141C52 165 65 215 78 230C91 245 104 225 117.2 203C130.3 181 143.7 157 156.8 163C170 169 183 205 196 212C209 219 222 197 235 177C248 157 261 139 274 147C287 155 300 189 313 192C326 195 339 167 352 152C365 137 378 135 391 137C404 139 417 145 430.2 154C443.3 163 456.7 175 469.8 178C483 181 496 175 509 174C522 173 535 177 548 174C561 171 574 161 587 160C600 159 613 167 626 165C639 163 652 151 665 157C678 163 691 187 704 181C717 175 730 139 743.2 129C756.3 119 769.7 135 782.8 152C796 169 809 187 822 184C835 181 848 157 861 158C874 159 887 185 893.5 198L900 211L900 143L893.5 135C887 127 874 111 861 112C848 113 835 131 822 137C809 143 796 137 782.8 129C769.7 121 756.3 111 743.2 120C730 129 717 157 704 150C691 143 678 101 665 97C652 93 639 127 626 138C613 149 600 137 587 130C574 123 561 121 548 128C535 135 522 151 509 156C496 161 483 155 469.8 150C456.7 145 443.3 141 430.2 126C417 111 404 85 391 79C378 73 365 87 352 106C339 125 326 149 313 146C300 143 287 113 274 109C261 105 248 127 235 142C222 157 209 165 196 158C183 151 170 129 156.8 125C143.7 121 130.3 135 117.2 148C104 161 91 173 78 167C65 161 52 137 39 126C26 115 13 117 6.5 118L0 119Z" fill="#c66404"></path><path d="M0 193L6.5 182C13 171 26 149 39 161C52 173 65 219 78 241C91 263 104 261 117.2 246C130.3 231 143.7 203 156.8 202C170 201 183 227 196 236C209 245 222 237 235 235C248 233 261 237 274 244C287 251 300 261 313 262C326 263 339 255 352 247C365 239 378 231 391 226C404 221 417 219 430.2 223C443.3 227 456.7 237 469.8 250C483 263 496 279 509 281C522 283 535 271 548 261C561 251 574 243 587 246C600 249 613 263 626 255C639 247 652 217 665 222C678 227 691 267 704 268C717 269 730 231 743.2 212C756.3 193 769.7 193 782.8 207C796 221 809 249 822 245C835 241 848 205 861 201C874 197 887 225 893.5 239L900 253L900 209L893.5 196C887 183 874 157 861 156C848 155 835 179 822 182C809 185 796 167 782.8 150C769.7 133 756.3 117 743.2 127C730 137 717 173 704 179C691 185 678 161 665 155C652 149 639 161 626 163C613 165 600 157 587 158C574 159 561 169 548 172C535 175 522 171 509 172C496 173 483 179 469.8 176C456.7 173 443.3 161 430.2 152C417 143 404 137 391 135C378 133 365 135 352 150C339 165 326 193 313 190C300 187 287 153 274 145C261 137 248 155 235 175C222 195 209 217 196 210C183 203 170 167 156.8 161C143.7 155 130.3 179 117.2 201C104 223 91 243 78 228C65 213 52 163 39 139C26 115 13 117 6.5 118L0 119Z" fill="#ba5e05"></path><path d="M0 241L6.5 223C13 205 26 169 39 173C52 177 65 221 78 243C91 265 104 265 117.2 256C130.3 247 143.7 229 156.8 227C170 225 183 239 196 248C209 257 222 261 235 265C248 269 261 273 274 275C287 277 300 277 313 273C326 269 339 261 352 257C365 253 378 253 391 255C404 257 417 261 430.2 262C443.3 263 456.7 261 469.8 270C483 279 496 299 509 299C522 299 535 279 548 271C561 263 574 267 587 272C600 277 613 283 626 272C639 261 652 233 665 242C678 251 691 297 704 299C717 301 730 259 743.2 238C756.3 217 769.7 217 782.8 228C796 239 809 261 822 259C835 257 848 231 861 228C874 225 887 245 893.5 255L900 265L900 251L893.5 237C887 223 874 195 861 199C848 203 835 239 822 243C809 247 796 219 782.8 205C769.7 191 756.3 191 743.2 210C730 229 717 267 704 266C691 265 678 225 665 220C652 215 639 245 626 253C613 261 600 247 587 244C574 241 561 249 548 259C535 269 522 281 509 279C496 277 483 261 469.8 248C456.7 235 443.3 225 430.2 221C417 217 404 219 391 224C378 229 365 237 352 245C339 253 326 261 313 260C300 259 287 249 274 242C261 235 248 231 235 233C222 235 209 243 196 234C183 225 170 199 156.8 200C143.7 201 130.3 229 117.2 244C104 259 91 261 78 239C65 217 52 171 39 159C26 147 13 169 6.5 180L0 191Z" fill="#ba5e05"></path><path d="M0 283L6.5 264C13 245 26 207 39 204C52 201 65 233 78 253C91 273 104 281 117.2 278C130.3 275 143.7 261 156.8 255C170 249 183 251 196 260C209 269 222 285 235 290C248 295 261 289 274 287C287 285 300 287 313 283C326 279 339 269 352 270C365 271 378 283 391 292C404 301 417 307 430.2 309C443.3 311 456.7 309 469.8 316C483 323 496 339 509 337C522 335 535 315 548 303C561 291 574 287 587 294C600 301 613 319 626 309C639 299 652 261 665 262C678 263 691 303 704 311C717 319 730 295 743.2 279C756.3 263 769.7 255 782.8 259C796 263 809 279 822 274C835 269 848 243 861 238C874 233 887 249 893.5 257L900 265L900 263L893.5 253C887 243 874 223 861 226C848 229 835 255 822 257C809 259 796 237 782.8 226C769.7 215 756.3 215 743.2 236C730 257 717 299 704 297C691 295 678 249 665 240C652 231 639 259 626 270C613 281 600 275 587 270C574 265 561 261 548 269C535 277 522 297 509 297C496 297 483 277 469.8 268C456.7 259 443.3 261 430.2 260C417 259 404 255 391 253C378 251 365 251 352 255C339 259 326 267 313 271C300 275 287 275 274 273C261 271 248 267 235 263C222 259 209 255 196 246C183 237 170 223 156.8 225C143.7 227 130.3 245 117.2 254C104 263 91 263 78 241C65 219 52 175 39 171C26 167 13 203 6.5 221L0 239Z" fill="#c66404"></path><path d="M0 403L6.5 390C13 377 26 351 39 361C52 371 65 417 78 411C91 405 104 347 117.2 347C130.3 347 143.7 405 156.8 400C170 395 183 327 196 324C209 321 222 383 235 393C248 403 261 361 274 337C287 313 300 307 313 323C326 339 339 377 352 400C365 423 378 431 391 429C404 427 417 415 430.2 398C443.3 381 456.7 359 469.8 370C483 381 496 425 509 433C522 441 535 413 548 406C561 399 574 413 587 433C600 453 613 479 626 473C639 467 652 429 665 427C678 425 691 459 704 449C717 439 730 385 743.2 378C756.3 371 769.7 411 782.8 408C796 405 809 359 822 357C835 355 848 397 861 392C874 387 887 335 893.5 309L900 283L900 263L893.5 255C887 247 874 231 861 236C848 241 835 267 822 272C809 277 796 261 782.8 257C769.7 253 756.3 261 743.2 277C730 293 717 317 704 309C691 301 678 261 665 260C652 259 639 297 626 307C613 317 600 299 587 292C574 285 561 289 548 301C535 313 522 333 509 335C496 337 483 321 469.8 314C456.7 307 443.3 309 430.2 307C417 305 404 299 391 290C378 281 365 269 352 268C339 267 326 277 313 281C300 285 287 283 274 285C261 287 248 293 235 288C222 283 209 267 196 258C183 249 170 247 156.8 253C143.7 259 130.3 273 117.2 276C104 279 91 271 78 251C65 231 52 199 39 202C26 205 13 243 6.5 262L0 281Z" fill="#e57302"></path><path d="M0 469L6.5 483C13 497 26 525 39 533C52 541 65 529 78 513C91 497 104 477 117.2 477C130.3 477 143.7 497 156.8 499C170 501 183 485 196 483C209 481 222 493 235 498C248 503 261 501 274 492C287 483 300 467 313 460C326 453 339 455 352 467C365 479 378 501 391 513C404 525 417 527 430.2 536C443.3 545 456.7 561 469.8 559C483 557 496 537 509 532C522 527 535 537 548 529C561 521 574 495 587 496C600 497 613 525 626 527C639 529 652 505 665 497C678 489 691 497 704 508C717 519 730 533 743.2 538C756.3 543 769.7 539 782.8 532C796 525 809 515 822 516C835 517 848 529 861 519C874 509 887 477 893.5 461L900 445L900 281L893.5 307C887 333 874 385 861 390C848 395 835 353 822 355C809 357 796 403 782.8 406C769.7 409 756.3 369 743.2 376C730 383 717 437 704 447C691 457 678 423 665 425C652 427 639 465 626 471C613 477 600 451 587 431C574 411 561 397 548 404C535 411 522 439 509 431C496 423 483 379 469.8 368C456.7 357 443.3 379 430.2 396C417 413 404 425 391 427C378 429 365 421 352 398C339 375 326 337 313 321C300 305 287 311 274 335C261 359 248 401 235 391C222 381 209 319 196 322C183 325 170 393 156.8 398C143.7 403 130.3 345 117.2 345C104 345 91 403 78 409C65 415 52 369 39 359C26 349 13 375 6.5 388L0 401Z" fill="#ff8310"></path><path d="M0 487L6.5 504C13 521 26 555 39 562C52 569 65 549 78 537C91 525 104 521 117.2 523C130.3 525 143.7 533 156.8 533C170 533 183 525 196 523C209 521 222 525 235 525C248 525 261 521 274 519C287 517 300 517 313 517C326 517 339 517 352 522C365 527 378 537 391 548C404 559 417 571 430.2 580C443.3 589 456.7 595 469.8 587C483 579 496 557 509 554C522 551 535 567 548 563C561 559 574 535 587 534C600 533 613 555 626 554C639 553 652 529 665 526C678 523 691 541 704 556C717 571 730 583 743.2 589C756.3 595 769.7 595 782.8 586C796 577 809 559 822 554C835 549 848 557 861 552C874 547 887 529 893.5 520L900 511L900 443L893.5 459C887 475 874 507 861 517C848 527 835 515 822 514C809 513 796 523 782.8 530C769.7 537 756.3 541 743.2 536C730 531 717 517 704 506C691 495 678 487 665 495C652 503 639 527 626 525C613 523 600 495 587 494C574 493 561 519 548 527C535 535 522 525 509 530C496 535 483 555 469.8 557C456.7 559 443.3 543 430.2 534C417 525 404 523 391 511C378 499 365 477 352 465C339 453 326 451 313 458C300 465 287 481 274 490C261 499 248 501 235 496C222 491 209 479 196 481C183 483 170 499 156.8 497C143.7 495 130.3 475 117.2 475C104 475 91 495 78 511C65 527 52 539 39 531C26 523 13 495 6.5 481L0 467Z" fill="#ff973a"></path><path d="M0 601L6.5 601C13 601 26 601 39 601C52 601 65 601 78 601C91 601 104 601 117.2 601C130.3 601 143.7 601 156.8 601C170 601 183 601 196 601C209 601 222 601 235 601C248 601 261 601 274 601C287 601 300 601 313 601C326 601 339 601 352 601C365 601 378 601 391 601C404 601 417 601 430.2 601C443.3 601 456.7 601 469.8 601C483 601 496 601 509 601C522 601 535 601 548 601C561 601 574 601 587 601C600 601 613 601 626 601C639 601 652 601 665 601C678 601 691 601 704 601C717 601 730 601 743.2 601C756.3 601 769.7 601 782.8 601C796 601 809 601 822 601C835 601 848 601 861 601C874 601 887 601 893.5 601L900 601L900 509L893.5 518C887 527 874 545 861 550C848 555 835 547 822 552C809 557 796 575 782.8 584C769.7 593 756.3 593 743.2 587C730 581 717 569 704 554C691 539 678 521 665 524C652 527 639 551 626 552C613 553 600 531 587 532C574 533 561 557 548 561C535 565 522 549 509 552C496 555 483 577 469.8 585C456.7 593 443.3 587 430.2 578C417 569 404 557 391 546C378 535 365 525 352 520C339 515 326 515 313 515C300 515 287 515 274 517C261 519 248 523 235 523C222 523 209 519 196 521C183 523 170 531 156.8 531C143.7 531 130.3 523 117.2 521C104 519 91 523 78 535C65 547 52 567 39 560C26 553 13 519 6.5 502L0 485Z" fill="#ffaa5a"></path></svg>