<svg id="visual" viewBox="0 0 900 600" width="900" height="600" xmlns="http://www.w3.org/2000/svg" xmlns:xlink="http://www.w3.org/1999/xlink" version="1.1"><path d="M0 43L6.5 35.8C13 28.7 26 14.3 39 11.3C52 8.3 65 16.7 78 23.8C91 31 104 37 117.2 43C130.3 49 143.7 55 156.8 57C170 59 183 57 196 57C209 57 222 59 235 59C248 59 261 57 274 55C287 53 300 51 313 41.8C326 32.7 339 16.3 352 9.3C365 2.3 378 4.7 391 12.8C404 21 417 35 430.2 42C443.3 49 456.7 49 469.8 47C483 45 496 41 509 35C522 29 535 21 548 22C561 23 574 33 587 39C600 45 613 47 626 42C639 37 652 25 665 23C678 21 691 29 704 36C717 43 730 49 743.2 51C756.3 53 769.7 51 782.8 41.8C796 32.7 809 16.3 822 16.3C835 16.3 848 32.7 861 39.8C874 47 887 45 893.5 44L900 43L900 0L893.5 0C887 0 874 0 861 0C848 0 835 0 822 0C809 0 796 0 782.8 0C769.7 0 756.3 0 743.2 0C730 0 717 0 704 0C691 0 678 0 665 0C652 0 639 0 626 0C613 0 600 0 587 0C574 0 561 0 548 0C535 0 522 0 509 0C496 0 483 0 469.8 0C456.7 0 443.3 0 430.2 0C417 0 404 0 391 0C378 0 365 0 352 0C339 0 326 0 313 0C300 0 287 0 274 0C261 0 248 0 235 0C222 0 209 0 196 0C183 0 170 0 156.8 0C143.7 0 130.3 0 117.2 0C104 0 91 0 78 0C65 0 52 0 39 0C26 0 13 0 6.5 0L0 0Z" fill="#ff6e60"></path><path d="M0 109L6.5 105C13 101 26 93 39 89C52 85 65 85 78 93C91 101 104 117 117.2 118C130.3 119 143.7 105 156.8 98C170 91 183 91 196 90C209 89 222 87 235 85C248 83 261 81 274 76C287 71 300 63 313 51C326 39 339 23 352 25C365 27 378 47 391 58C404 69 417 71 430.2 70C443.3 69 456.7 65 469.8 67C483 69 496 77 509 81C522 85 535 85 548 87C561 89 574 93 587 98C600 103 613 109 626 109C639 109 652 103 665 91C678 79 691 61 704 69C717 77 730 111 743.2 117C756.3 123 769.7 101 782.8 76.8C796 52.7 809 26.3 822 35.3C835 44.3 848 88.7 861 107.8C874 127 887 121 893.5 118L900 115L900 41L893.5 42C887 43 874 45 861 38.2C848 31.3 835 15.7 822 15.7C809 15.7 796 31.3 782.8 40.2C769.7 49 756.3 51 743.2 49C730 47 717 41 704 34C691 27 678 19 665 21C652 23 639 35 626 40C613 45 600 43 587 37C574 31 561 21 548 20C535 19 522 27 509 33C496 39 483 43 469.8 45C456.7 47 443.3 47 430.2 40C417 33 404 19 391 11.2C378 3.3 365 1.7 352 8.7C339 15.7 326 31.3 313 40.2C300 49 287 51 274 53C261 55 248 57 235 57C222 57 209 55 196 55C183 55 170 57 156.8 55C143.7 53 130.3 47 117.2 41C104 35 91 29 78 22.2C65 15.3 52 7.7 39 10.7C26 13.7 13 27.3 6.5 34.2L0 41Z" fill="#ff4d3c"></path><path d="M0 157L6.5 146C13 135 26 113 39 109C52 105 65 119 78 130C91 141 104 149 117.2 143C130.3 137 143.7 117 156.8 111C170 105 183 113 196 114C209 115 222 109 235 103C248 97 261 91 274 85C287 79 300 73 313 67C326 61 339 55 352 55C365 55 378 61 391 72C404 83 417 99 430.2 106C443.3 113 456.7 111 469.8 107C483 103 496 97 509 96C522 95 535 99 548 108C561 117 574 131 587 137C600 143 613 141 626 137C639 133 652 127 665 111C678 95 691 69 704 74C717 79 730 115 743.2 126C756.3 137 769.7 123 782.8 100C796 77 809 45 822 53C835 61 848 109 861 128C874 147 887 137 893.5 132L900 127L900 113L893.5 116C887 119 874 125 861 106.2C848 87.3 835 43.7 822 34.7C809 25.7 796 51.3 782.8 75.2C769.7 99 756.3 121 743.2 115C730 109 717 75 704 67C691 59 678 77 665 89C652 101 639 107 626 107C613 107 600 101 587 96C574 91 561 87 548 85C535 83 522 83 509 79C496 75 483 67 469.8 65C456.7 63 443.3 67 430.2 68C417 69 404 67 391 56C378 45 365 25 352 23C339 21 326 37 313 49C300 61 287 69 274 74C261 79 248 81 235 83C222 85 209 87 196 88C183 89 170 89 156.8 96C143.7 103 130.3 117 117.2 116C104 115 91 99 78 91C65 83 52 83 39 87C26 91 13 99 6.5 103L0 107Z" fill="#ff1b0f"></path><path d="M0 265L6.5 257C13 249 26 233 39 235C52 237 65 257 78 265C91 273 104 269 117.2 276C130.3 283 143.7 301 156.8 305C170 309 183 299 196 274C209 249 222 209 235 188C248 167 261 165 274 183C287 201 300 239 313 239C326 239 339 201 352 189C365 177 378 191 391 226C404 261 417 317 430.2 307C443.3 297 456.7 221 469.8 211C483 201 496 257 509 291C522 325 535 337 548 318C561 299 574 249 587 230C600 211 613 223 626 216C639 209 652 183 665 185C678 187 691 217 704 245C717 273 730 299 743.2 297C756.3 295 769.7 265 782.8 236C796 207 809 179 822 194C835 209 848 267 861 272C874 277 887 229 893.5 205L900 181L900 125L893.5 130C887 135 874 145 861 126C848 107 835 59 822 51C809 43 796 75 782.8 98C769.7 121 756.3 135 743.2 124C730 113 717 77 704 72C691 67 678 93 665 109C652 125 639 131 626 135C613 139 600 141 587 135C574 129 561 115 548 106C535 97 522 93 509 94C496 95 483 101 469.8 105C456.7 109 443.3 111 430.2 104C417 97 404 81 391 70C378 59 365 53 352 53C339 53 326 59 313 65C300 71 287 77 274 83C261 89 248 95 235 101C222 107 209 113 196 112C183 111 170 103 156.8 109C143.7 115 130.3 135 117.2 141C104 147 91 139 78 128C65 117 52 103 39 107C26 111 13 133 6.5 144L0 155Z" fill="#e70009"></path><path d="M0 289L6.5 293C13 297 26 305 39 307C52 309 65 305 78 317C91 329 104 357 117.2 361C130.3 365 143.7 345 156.8 346C170 347 183 369 196 363C209 357 222 323 235 304C248 285 261 281 274 285C287 289 300 301 313 290C326 279 339 245 352 237C365 229 378 247 391 275C404 303 417 341 430.2 339C443.3 337 456.7 295 469.8 285C483 275 496 297 509 328C522 359 535 399 548 387C561 375 574 311 587 281C600 251 613 255 626 250C639 245 652 231 665 249C678 267 691 317 704 338C717 359 730 351 743.2 334C756.3 317 769.7 291 782.8 261C796 231 809 197 822 209C835 221 848 279 861 291C874 303 887 269 893.5 252L900 235L900 179L893.5 203C887 227 874 275 861 270C848 265 835 207 822 192C809 177 796 205 782.8 234C769.7 263 756.3 293 743.2 295C730 297 717 271 704 243C691 215 678 185 665 183C652 181 639 207 626 214C613 221 600 209 587 228C574 247 561 297 548 316C535 335 522 323 509 289C496 255 483 199 469.8 209C456.7 219 443.3 295 430.2 305C417 315 404 259 391 224C378 189 365 175 352 187C339 199 326 237 313 237C300 237 287 199 274 181C261 163 248 165 235 186C222 207 209 247 196 272C183 297 170 307 156.8 303C143.7 299 130.3 281 117.2 274C104 267 91 271 78 263C65 255 52 235 39 233C26 231 13 247 6.5 255L0 263Z" fill="#c9000f"></path><path d="M0 319L6.5 318C13 317 26 315 39 319C52 323 65 333 78 347C91 361 104 379 117.2 384C130.3 389 143.7 381 156.8 386C170 391 183 409 196 398C209 387 222 347 235 324C248 301 261 295 274 297C287 299 300 309 313 304C326 299 339 279 352 279C365 279 378 299 391 326C404 353 417 387 430.2 383C443.3 379 456.7 337 469.8 324C483 311 496 327 509 352C522 377 535 411 548 401C561 391 574 337 587 313C600 289 613 295 626 286C639 277 652 253 665 272C678 291 691 353 704 372C717 391 730 367 743.2 345C756.3 323 769.7 303 782.8 273C796 243 809 203 822 217C835 231 848 299 861 317C874 335 887 303 893.5 287L900 271L900 233L893.5 250C887 267 874 301 861 289C848 277 835 219 822 207C809 195 796 229 782.8 259C769.7 289 756.3 315 743.2 332C730 349 717 357 704 336C691 315 678 265 665 247C652 229 639 243 626 248C613 253 600 249 587 279C574 309 561 373 548 385C535 397 522 357 509 326C496 295 483 273 469.8 283C456.7 293 443.3 335 430.2 337C417 339 404 301 391 273C378 245 365 227 352 235C339 243 326 277 313 288C300 299 287 287 274 283C261 279 248 283 235 302C222 321 209 355 196 361C183 367 170 345 156.8 344C143.7 343 130.3 363 117.2 359C104 355 91 327 78 315C65 303 52 307 39 305C26 303 13 295 6.5 291L0 287Z" fill="#bd0010"></path><path d="M0 325L6.5 335C13 345 26 365 39 377C52 389 65 393 78 397C91 401 104 405 117.2 401C130.3 397 143.7 385 156.8 398C170 411 183 449 196 441C209 433 222 379 235 349C248 319 261 313 274 313C287 313 300 319 313 317C326 315 339 305 352 312C365 319 378 343 391 369C404 395 417 423 430.2 414C443.3 405 456.7 359 469.8 342C483 325 496 337 509 363C522 389 535 429 548 426C561 423 574 377 587 350C600 323 613 315 626 305C639 295 652 283 665 306C678 329 691 387 704 400C717 413 730 381 743.2 359C756.3 337 769.7 325 782.8 300C796 275 809 237 822 251C835 265 848 331 861 349C874 367 887 337 893.5 322L900 307L900 269L893.5 285C887 301 874 333 861 315C848 297 835 229 822 215C809 201 796 241 782.8 271C769.7 301 756.3 321 743.2 343C730 365 717 389 704 370C691 351 678 289 665 270C652 251 639 275 626 284C613 293 600 287 587 311C574 335 561 389 548 399C535 409 522 375 509 350C496 325 483 309 469.8 322C456.7 335 443.3 377 430.2 381C417 385 404 351 391 324C378 297 365 277 352 277C339 277 326 297 313 302C300 307 287 297 274 295C261 293 248 299 235 322C222 345 209 385 196 396C183 407 170 389 156.8 384C143.7 379 130.3 387 117.2 382C104 377 91 359 78 345C65 331 52 321 39 317C26 313 13 315 6.5 316L0 317Z" fill="#bd0010"></path><path d="M0 505L6.5 486C13 467 26 429 39 419C52 409 65 427 78 439C91 451 104 457 117.2 472C130.3 487 143.7 511 156.8 515C170 519 183 503 196 485C209 467 222 447 235 446C248 445 261 463 274 455C287 447 300 413 313 426C326 439 339 499 352 501C365 503 378 447 391 433C404 419 417 447 430.2 455C443.3 463 456.7 451 469.8 451C483 451 496 463 509 471C522 479 535 483 548 483C561 483 574 479 587 466C600 453 613 431 626 424C639 417 652 425 665 431C678 437 691 441 704 435C717 429 730 413 743.2 414C756.3 415 769.7 433 782.8 438C796 443 809 435 822 430C835 425 848 423 861 422C874 421 887 421 893.5 421L900 421L900 305L893.5 320C887 335 874 365 861 347C848 329 835 263 822 249C809 235 796 273 782.8 298C769.7 323 756.3 335 743.2 357C730 379 717 411 704 398C691 385 678 327 665 304C652 281 639 293 626 303C613 313 600 321 587 348C574 375 561 421 548 424C535 427 522 387 509 361C496 335 483 323 469.8 340C456.7 357 443.3 403 430.2 412C417 421 404 393 391 367C378 341 365 317 352 310C339 303 326 313 313 315C300 317 287 311 274 311C261 311 248 317 235 347C222 377 209 431 196 439C183 447 170 409 156.8 396C143.7 383 130.3 395 117.2 399C104 403 91 399 78 395C65 391 52 387 39 375C26 363 13 343 6.5 333L0 323Z" fill="#c9000f"></path><path d="M0 541L6.5 524C13 507 26 473 39 457C52 441 65 443 78 448C91 453 104 461 117.2 477C130.3 493 143.7 517 156.8 528C170 539 183 537 196 529C209 521 222 507 235 504C248 501 261 509 274 491C287 473 300 429 313 441C326 453 339 521 352 533C365 545 378 501 391 484C404 467 417 477 430.2 484C443.3 491 456.7 495 469.8 505C483 515 496 531 509 530C522 529 535 511 548 500C561 489 574 485 587 473C600 461 613 441 626 443C639 445 652 469 665 476C678 483 691 473 704 470C717 467 730 471 743.2 469C756.3 467 769.7 459 782.8 458C796 457 809 463 822 463C835 463 848 457 861 461C874 465 887 479 893.5 486L900 493L900 419L893.5 419C887 419 874 419 861 420C848 421 835 423 822 428C809 433 796 441 782.8 436C769.7 431 756.3 413 743.2 412C730 411 717 427 704 433C691 439 678 435 665 429C652 423 639 415 626 422C613 429 600 451 587 464C574 477 561 481 548 481C535 481 522 477 509 469C496 461 483 449 469.8 449C456.7 449 443.3 461 430.2 453C417 445 404 417 391 431C378 445 365 501 352 499C339 497 326 437 313 424C300 411 287 445 274 453C261 461 248 443 235 444C222 445 209 465 196 483C183 501 170 517 156.8 513C143.7 509 130.3 485 117.2 470C104 455 91 449 78 437C65 425 52 407 39 417C26 427 13 465 6.5 484L0 503Z" fill="#e70009"></path><path d="M0 583L6.5 560C13 537 26 491 39 475C52 459 65 473 78 485C91 497 104 507 117.2 519C130.3 531 143.7 545 156.8 548C170 551 183 543 196 535C209 527 222 519 235 519C248 519 261 527 274 514C287 501 300 467 313 476C326 485 339 537 352 543C365 549 378 509 391 500C404 491 417 513 430.2 524C443.3 535 456.7 535 469.8 544C483 553 496 571 509 569C522 567 535 545 548 532C561 519 574 515 587 503C600 491 613 471 626 470C639 469 652 487 665 495C678 503 691 501 704 496C717 491 730 483 743.2 481C756.3 479 769.7 483 782.8 486C796 489 809 491 822 491C835 491 848 489 861 495C874 501 887 515 893.5 522L900 529L900 491L893.5 484C887 477 874 463 861 459C848 455 835 461 822 461C809 461 796 455 782.8 456C769.7 457 756.3 465 743.2 467C730 469 717 465 704 468C691 471 678 481 665 474C652 467 639 443 626 441C613 439 600 459 587 471C574 483 561 487 548 498C535 509 522 527 509 528C496 529 483 513 469.8 503C456.7 493 443.3 489 430.2 482C417 475 404 465 391 482C378 499 365 543 352 531C339 519 326 451 313 439C300 427 287 471 274 489C261 507 248 499 235 502C222 505 209 519 196 527C183 535 170 537 156.8 526C143.7 515 130.3 491 117.2 475C104 459 91 451 78 446C65 441 52 439 39 455C26 471 13 505 6.5 522L0 539Z" fill="#ff1b0f"></path><path d="M0 595L6.5 579C13 563 26 531 39 520C52 509 65 519 78 532C91 545 104 561 117.2 568C130.3 575 143.7 573 156.8 576C170 579 183 587 196 581C209 575 222 555 235 556C248 557 261 579 274 567C287 555 300 509 313 508C326 507 339 551 352 561C365 571 378 547 391 543C404 539 417 555 430.2 561C443.3 567 456.7 563 469.8 568C483 573 496 587 509 589C522 591 535 581 548 572C561 563 574 555 587 543C600 531 613 515 626 517C639 519 652 539 665 548C678 557 691 555 704 551C717 547 730 541 743.2 540C756.3 539 769.7 543 782.8 546C796 549 809 551 822 545C835 539 848 525 861 528C874 531 887 551 893.5 561L900 571L900 527L893.5 520C887 513 874 499 861 493C848 487 835 489 822 489C809 489 796 487 782.8 484C769.7 481 756.3 477 743.2 479C730 481 717 489 704 494C691 499 678 501 665 493C652 485 639 467 626 468C613 469 600 489 587 501C574 513 561 517 548 530C535 543 522 565 509 567C496 569 483 551 469.8 542C456.7 533 443.3 533 430.2 522C417 511 404 489 391 498C378 507 365 547 352 541C339 535 326 483 313 474C300 465 287 499 274 512C261 525 248 517 235 517C222 517 209 525 196 533C183 541 170 549 156.8 546C143.7 543 130.3 529 117.2 517C104 505 91 495 78 483C65 471 52 457 39 473C26 489 13 535 6.5 558L0 581Z" fill="#ff4d3c"></path><path d="M0 601L6.5 601C13 601 26 601 39 601C52 601 65 601 78 601C91 601 104 601 117.2 601C130.3 601 143.7 601 156.8 601C170 601 183 601 196 601C209 601 222 601 235 601C248 601 261 601 274 601C287 601 300 601 313 601C326 601 339 601 352 601C365 601 378 601 391 601C404 601 417 601 430.2 601C443.3 601 456.7 601 469.8 601C483 601 496 601 509 601C522 601 535 601 548 601C561 601 574 601 587 601C600 601 613 601 626 601C639 601 652 601 665 601C678 601 691 601 704 601C717 601 730 601 743.2 601C756.3 601 769.7 601 782.8 601C796 601 809 601 822 601C835 601 848 601 861 601C874 601 887 601 893.5 601L900 601L900 569L893.5 559C887 549 874 529 861 526C848 523 835 537 822 543C809 549 796 547 782.8 544C769.7 541 756.3 537 743.2 538C730 539 717 545 704 549C691 553 678 555 665 546C652 537 639 517 626 515C613 513 600 529 587 541C574 553 561 561 548 570C535 579 522 589 509 587C496 585 483 571 469.8 566C456.7 561 443.3 565 430.2 559C417 553 404 537 391 541C378 545 365 569 352 559C339 549 326 505 313 506C300 507 287 553 274 565C261 577 248 555 235 554C222 553 209 573 196 579C183 585 170 577 156.8 574C143.7 571 130.3 573 117.2 566C104 559 91 543 78 530C65 517 52 507 39 518C26 529 13 561 6.5 577L0 593Z" fill="#ff6e60"></path></svg>