<svg id="visual" viewBox="0 0 900 600" width="900" height="600" xmlns="http://www.w3.org/2000/svg" xmlns:xlink="http://www.w3.org/1999/xlink" version="1.1"><path d="M0 55L6.5 50C13 45 26 35 39 27C52 19 65 13 78 14C91 15 104 23 117.2 25C130.3 27 143.7 23 156.8 25C170 27 183 35 196 37C209 39 222 35 235 29C248 23 261 15 274 13C287 11 300 15 313 26C326 37 339 55 352 62C365 69 378 65 391 62C404 59 417 57 430.2 55C443.3 53 456.7 51 469.8 41.8C483 32.7 496 16.3 509 22.3C522 28.3 535 56.7 548 61.8C561 67 574 49 587 41C600 33 613 35 626 37C639 39 652 41 665 38C678 35 691 27 704 24C717 21 730 23 743.2 28C756.3 33 769.7 41 782.8 50C796 59 809 69 822 72C835 75 848 71 861 60C874 49 887 31 893.5 22L900 13L900 0L893.5 0C887 0 874 0 861 0C848 0 835 0 822 0C809 0 796 0 782.8 0C769.7 0 756.3 0 743.2 0C730 0 717 0 704 0C691 0 678 0 665 0C652 0 639 0 626 0C613 0 600 0 587 0C574 0 561 0 548 0C535 0 522 0 509 0C496 0 483 0 469.8 0C456.7 0 443.3 0 430.2 0C417 0 404 0 391 0C378 0 365 0 352 0C339 0 326 0 313 0C300 0 287 0 274 0C261 0 248 0 235 0C222 0 209 0 196 0C183 0 170 0 156.8 0C143.7 0 130.3 0 117.2 0C104 0 91 0 78 0C65 0 52 0 39 0C26 0 13 0 6.5 0L0 0Z" fill="#a2ff70"></path><path d="M0 85L6.5 80C13 75 26 65 39 60C52 55 65 55 78 51C91 47 104 39 117.2 50C130.3 61 143.7 91 156.8 95C170 99 183 77 196 71C209 65 222 75 235 81C248 87 261 89 274 79C287 69 300 47 313 50C326 53 339 81 352 105C365 129 378 149 391 152C404 155 417 141 430.2 135C443.3 129 456.7 131 469.8 114C483 97 496 61 509 55C522 49 535 73 548 77C561 81 574 65 587 61C600 57 613 65 626 75C639 85 652 97 665 93C678 89 691 69 704 71C717 73 730 97 743.2 97C756.3 97 769.7 73 782.8 78C796 83 809 117 822 131C835 145 848 139 861 132C874 125 887 117 893.5 113L900 109L900 11L893.5 20C887 29 874 47 861 58C848 69 835 73 822 70C809 67 796 57 782.8 48C769.7 39 756.3 31 743.2 26C730 21 717 19 704 22C691 25 678 33 665 36C652 39 639 37 626 35C613 33 600 31 587 39C574 47 561 65 548 60.2C535 55.3 522 27.7 509 21.7C496 15.7 483 31.3 469.8 40.2C456.7 49 443.3 51 430.2 53C417 55 404 57 391 60C378 63 365 67 352 60C339 53 326 35 313 24C300 13 287 9 274 11C261 13 248 21 235 27C222 33 209 37 196 35C183 33 170 25 156.8 23C143.7 21 130.3 25 117.2 23C104 21 91 13 78 12C65 11 52 17 39 25C26 33 13 43 6.5 48L0 53Z" fill="#8aff4e"></path><path d="M0 127L6.5 123C13 119 26 111 39 103C52 95 65 87 78 76C91 65 104 51 117.2 58C130.3 65 143.7 93 156.8 103C170 113 183 105 196 99C209 93 222 89 235 88C248 87 261 89 274 86C287 83 300 75 313 82C326 89 339 111 352 137C365 163 378 193 391 200C404 207 417 191 430.2 180C443.3 169 456.7 163 469.8 146C483 129 496 101 509 96C522 91 535 109 548 109C561 109 574 91 587 91C600 91 613 109 626 115C639 121 652 115 665 103C678 91 691 73 704 77C717 81 730 107 743.2 109C756.3 111 769.7 89 782.8 97C796 105 809 143 822 161C835 179 848 177 861 172C874 167 887 159 893.5 155L900 151L900 107L893.5 111C887 115 874 123 861 130C848 137 835 143 822 129C809 115 796 81 782.8 76C769.7 71 756.3 95 743.2 95C730 95 717 71 704 69C691 67 678 87 665 91C652 95 639 83 626 73C613 63 600 55 587 59C574 63 561 79 548 75C535 71 522 47 509 53C496 59 483 95 469.8 112C456.7 129 443.3 127 430.2 133C417 139 404 153 391 150C378 147 365 127 352 103C339 79 326 51 313 48C300 45 287 67 274 77C261 87 248 85 235 79C222 73 209 63 196 69C183 75 170 97 156.8 93C143.7 89 130.3 59 117.2 48C104 37 91 45 78 49C65 53 52 53 39 58C26 63 13 73 6.5 78L0 83Z" fill="#6dff1b"></path><path d="M0 151L6.5 147C13 143 26 135 39 126C52 117 65 107 78 104C91 101 104 105 117.2 109C130.3 113 143.7 117 156.8 126C170 135 183 149 196 149C209 149 222 135 235 130C248 125 261 129 274 122C287 115 300 97 313 103C326 109 339 139 352 164C365 189 378 209 391 214C404 219 417 209 430.2 202C443.3 195 456.7 191 469.8 172C483 153 496 119 509 109C522 99 535 113 548 117C561 121 574 115 587 123C600 131 613 153 626 154C639 155 652 135 665 120C678 105 691 95 704 100C717 105 730 125 743.2 129C756.3 133 769.7 121 782.8 128C796 135 809 161 822 177C835 193 848 199 861 196C874 193 887 181 893.5 175L900 169L900 149L893.5 153C887 157 874 165 861 170C848 175 835 177 822 159C809 141 796 103 782.8 95C769.7 87 756.3 109 743.2 107C730 105 717 79 704 75C691 71 678 89 665 101C652 113 639 119 626 113C613 107 600 89 587 89C574 89 561 107 548 107C535 107 522 89 509 94C496 99 483 127 469.8 144C456.7 161 443.3 167 430.2 178C417 189 404 205 391 198C378 191 365 161 352 135C339 109 326 87 313 80C300 73 287 81 274 84C261 87 248 85 235 86C222 87 209 91 196 97C183 103 170 111 156.8 101C143.7 91 130.3 63 117.2 56C104 49 91 63 78 74C65 85 52 93 39 101C26 109 13 117 6.5 121L0 125Z" fill="#5de500"></path><path d="M0 247L6.5 244C13 241 26 235 39 256C52 277 65 325 78 314C91 303 104 233 117.2 220C130.3 207 143.7 251 156.8 263C170 275 183 255 196 229C209 203 222 171 235 184C248 197 261 255 274 248C287 241 300 169 313 160C326 151 339 205 352 253C365 301 378 343 391 343C404 343 417 301 430.2 287C443.3 273 456.7 287 469.8 286C483 285 496 269 509 253C522 237 535 221 548 223C561 225 574 245 587 254C600 263 613 261 626 250C639 239 652 219 665 201C678 183 691 167 704 172C717 177 730 203 743.2 203C756.3 203 769.7 177 782.8 202C796 227 809 303 822 341C835 379 848 379 861 346C874 313 887 247 893.5 214L900 181L900 167L893.5 173C887 179 874 191 861 194C848 197 835 191 822 175C809 159 796 133 782.8 126C769.7 119 756.3 131 743.2 127C730 123 717 103 704 98C691 93 678 103 665 118C652 133 639 153 626 152C613 151 600 129 587 121C574 113 561 119 548 115C535 111 522 97 509 107C496 117 483 151 469.8 170C456.7 189 443.3 193 430.2 200C417 207 404 217 391 212C378 207 365 187 352 162C339 137 326 107 313 101C300 95 287 113 274 120C261 127 248 123 235 128C222 133 209 147 196 147C183 147 170 133 156.8 124C143.7 115 130.3 111 117.2 107C104 103 91 99 78 102C65 105 52 115 39 124C26 133 13 141 6.5 145L0 149Z" fill="#51c600"></path><path d="M0 355L6.5 351C13 347 26 339 39 352C52 365 65 399 78 409C91 419 104 405 117.2 398C130.3 391 143.7 391 156.8 392C170 393 183 395 196 387C209 379 222 361 235 358C248 355 261 367 274 369C287 371 300 363 313 361C326 359 339 363 352 376C365 389 378 411 391 409C404 407 417 381 430.2 367C443.3 353 456.7 351 469.8 348C483 345 496 341 509 341C522 341 535 345 548 373C561 401 574 453 587 462C600 471 613 437 626 411C639 385 652 367 665 352C678 337 691 325 704 315C717 305 730 297 743.2 305C756.3 313 769.7 337 782.8 355C796 373 809 385 822 395C835 405 848 413 861 409C874 405 887 389 893.5 381L900 373L900 179L893.5 212C887 245 874 311 861 344C848 377 835 377 822 339C809 301 796 225 782.8 200C769.7 175 756.3 201 743.2 201C730 201 717 175 704 170C691 165 678 181 665 199C652 217 639 237 626 248C613 259 600 261 587 252C574 243 561 223 548 221C535 219 522 235 509 251C496 267 483 283 469.8 284C456.7 285 443.3 271 430.2 285C417 299 404 341 391 341C378 341 365 299 352 251C339 203 326 149 313 158C300 167 287 239 274 246C261 253 248 195 235 182C222 169 209 201 196 227C183 253 170 273 156.8 261C143.7 249 130.3 205 117.2 218C104 231 91 301 78 312C65 323 52 275 39 254C26 233 13 239 6.5 242L0 245Z" fill="#4cba00"></path><path d="M0 397L6.5 404C13 411 26 425 39 440C52 455 65 471 78 467C91 463 104 439 117.2 427C130.3 415 143.7 415 156.8 415C170 415 183 415 196 422C209 429 222 443 235 446C248 449 261 441 274 437C287 433 300 433 313 433C326 433 339 433 352 434C365 435 378 437 391 434C404 431 417 423 430.2 415C443.3 407 456.7 399 469.8 400C483 401 496 411 509 421C522 431 535 441 548 458C561 475 574 499 587 507C600 515 613 507 626 500C639 493 652 487 665 468C678 449 691 417 704 401C717 385 730 385 743.2 388C756.3 391 769.7 397 782.8 406C796 415 809 427 822 441C835 455 848 471 861 468C874 465 887 443 893.5 432L900 421L900 371L893.5 379C887 387 874 403 861 407C848 411 835 403 822 393C809 383 796 371 782.8 353C769.7 335 756.3 311 743.2 303C730 295 717 303 704 313C691 323 678 335 665 350C652 365 639 383 626 409C613 435 600 469 587 460C574 451 561 399 548 371C535 343 522 339 509 339C496 339 483 343 469.8 346C456.7 349 443.3 351 430.2 365C417 379 404 405 391 407C378 409 365 387 352 374C339 361 326 357 313 359C300 361 287 369 274 367C261 365 248 353 235 356C222 359 209 377 196 385C183 393 170 391 156.8 390C143.7 389 130.3 389 117.2 396C104 403 91 417 78 407C65 397 52 363 39 350C26 337 13 345 6.5 349L0 353Z" fill="#4cba00"></path><path d="M0 427L6.5 437C13 447 26 467 39 477C52 487 65 487 78 479C91 471 104 455 117.2 451C130.3 447 143.7 455 156.8 459C170 463 183 463 196 466C209 469 222 475 235 471C248 467 261 453 274 450C287 447 300 455 313 457C326 459 339 455 352 453C365 451 378 451 391 450C404 449 417 447 430.2 444C443.3 441 456.7 437 469.8 436C483 435 496 437 509 442C522 447 535 455 548 469C561 483 574 503 587 509C600 515 613 507 626 504C639 501 652 503 665 491C678 479 691 453 704 437C717 421 730 415 743.2 419C756.3 423 769.7 437 782.8 447C796 457 809 463 822 470C835 477 848 485 861 481C874 477 887 461 893.5 453L900 445L900 419L893.5 430C887 441 874 463 861 466C848 469 835 453 822 439C809 425 796 413 782.8 404C769.7 395 756.3 389 743.2 386C730 383 717 383 704 399C691 415 678 447 665 466C652 485 639 491 626 498C613 505 600 513 587 505C574 497 561 473 548 456C535 439 522 429 509 419C496 409 483 399 469.8 398C456.7 397 443.3 405 430.2 413C417 421 404 429 391 432C378 435 365 433 352 432C339 431 326 431 313 431C300 431 287 431 274 435C261 439 248 447 235 444C222 441 209 427 196 420C183 413 170 413 156.8 413C143.7 413 130.3 413 117.2 425C104 437 91 461 78 465C65 469 52 453 39 438C26 423 13 409 6.5 402L0 395Z" fill="#51c600"></path><path d="M0 463L6.5 473C13 483 26 503 39 515C52 527 65 531 78 523C91 515 104 495 117.2 490C130.3 485 143.7 495 156.8 494C170 493 183 481 196 482C209 483 222 497 235 496C248 495 261 479 274 475C287 471 300 479 313 477C326 475 339 463 352 458C365 453 378 455 391 462C404 469 417 481 430.2 483C443.3 485 456.7 477 469.8 476C483 475 496 481 509 487C522 493 535 499 548 507C561 515 574 525 587 527C600 529 613 523 626 519C639 515 652 513 665 502C678 491 691 471 704 462C717 453 730 455 743.2 462C756.3 469 769.7 481 782.8 487C796 493 809 493 822 495C835 497 848 501 861 500C874 499 887 493 893.5 490L900 487L900 443L893.5 451C887 459 874 475 861 479C848 483 835 475 822 468C809 461 796 455 782.8 445C769.7 435 756.3 421 743.2 417C730 413 717 419 704 435C691 451 678 477 665 489C652 501 639 499 626 502C613 505 600 513 587 507C574 501 561 481 548 467C535 453 522 445 509 440C496 435 483 433 469.8 434C456.7 435 443.3 439 430.2 442C417 445 404 447 391 448C378 449 365 449 352 451C339 453 326 457 313 455C300 453 287 445 274 448C261 451 248 465 235 469C222 473 209 467 196 464C183 461 170 461 156.8 457C143.7 453 130.3 445 117.2 449C104 453 91 469 78 477C65 485 52 485 39 475C26 465 13 445 6.5 435L0 425Z" fill="#5de500"></path><path d="M0 511L6.5 515C13 519 26 527 39 533C52 539 65 543 78 537C91 531 104 515 117.2 513C130.3 511 143.7 523 156.8 522C170 521 183 507 196 512C209 517 222 541 235 540C248 539 261 513 274 505C287 497 300 507 313 506C326 505 339 493 352 487C365 481 378 481 391 486C404 491 417 501 430.2 506C443.3 511 456.7 511 469.8 515C483 519 496 527 509 531C522 535 535 535 548 535C561 535 574 535 587 537C600 539 613 543 626 540C639 537 652 527 665 521C678 515 691 513 704 507C717 501 730 491 743.2 496C756.3 501 769.7 521 782.8 526C796 531 809 521 822 525C835 529 848 547 861 545C874 543 887 521 893.5 510L900 499L900 485L893.5 488C887 491 874 497 861 498C848 499 835 495 822 493C809 491 796 491 782.8 485C769.7 479 756.3 467 743.2 460C730 453 717 451 704 460C691 469 678 489 665 500C652 511 639 513 626 517C613 521 600 527 587 525C574 523 561 513 548 505C535 497 522 491 509 485C496 479 483 473 469.8 474C456.7 475 443.3 483 430.2 481C417 479 404 467 391 460C378 453 365 451 352 456C339 461 326 473 313 475C300 477 287 469 274 473C261 477 248 493 235 494C222 495 209 481 196 480C183 479 170 491 156.8 492C143.7 493 130.3 483 117.2 488C104 493 91 513 78 521C65 529 52 525 39 513C26 501 13 481 6.5 471L0 461Z" fill="#6dff1b"></path><path d="M0 547L6.5 550C13 553 26 559 39 564C52 569 65 573 78 569C91 565 104 553 117.2 547C130.3 541 143.7 541 156.8 541C170 541 183 541 196 549C209 557 222 573 235 570C248 567 261 545 274 536C287 527 300 531 313 534C326 537 339 539 352 537C365 535 378 529 391 532C404 535 417 547 430.2 548C443.3 549 456.7 539 469.8 536C483 533 496 537 509 543C522 549 535 557 548 560C561 563 574 561 587 565C600 569 613 579 626 575C639 571 652 553 665 542C678 531 691 527 704 525C717 523 730 523 743.2 532C756.3 541 769.7 559 782.8 558C796 557 809 537 822 537C835 537 848 557 861 559C874 561 887 545 893.5 537L900 529L900 497L893.5 508C887 519 874 541 861 543C848 545 835 527 822 523C809 519 796 529 782.8 524C769.7 519 756.3 499 743.2 494C730 489 717 499 704 505C691 511 678 513 665 519C652 525 639 535 626 538C613 541 600 537 587 535C574 533 561 533 548 533C535 533 522 533 509 529C496 525 483 517 469.8 513C456.7 509 443.3 509 430.2 504C417 499 404 489 391 484C378 479 365 479 352 485C339 491 326 503 313 504C300 505 287 495 274 503C261 511 248 537 235 538C222 539 209 515 196 510C183 505 170 519 156.8 520C143.7 521 130.3 509 117.2 511C104 513 91 529 78 535C65 541 52 537 39 531C26 525 13 517 6.5 513L0 509Z" fill="#8aff4e"></path><path d="M0 601L6.5 601C13 601 26 601 39 601C52 601 65 601 78 601C91 601 104 601 117.2 601C130.3 601 143.7 601 156.8 601C170 601 183 601 196 601C209 601 222 601 235 601C248 601 261 601 274 601C287 601 300 601 313 601C326 601 339 601 352 601C365 601 378 601 391 601C404 601 417 601 430.2 601C443.3 601 456.7 601 469.8 601C483 601 496 601 509 601C522 601 535 601 548 601C561 601 574 601 587 601C600 601 613 601 626 601C639 601 652 601 665 601C678 601 691 601 704 601C717 601 730 601 743.2 601C756.3 601 769.7 601 782.8 601C796 601 809 601 822 601C835 601 848 601 861 601C874 601 887 601 893.5 601L900 601L900 527L893.5 535C887 543 874 559 861 557C848 555 835 535 822 535C809 535 796 555 782.8 556C769.7 557 756.3 539 743.2 530C730 521 717 521 704 523C691 525 678 529 665 540C652 551 639 569 626 573C613 577 600 567 587 563C574 559 561 561 548 558C535 555 522 547 509 541C496 535 483 531 469.8 534C456.7 537 443.3 547 430.2 546C417 545 404 533 391 530C378 527 365 533 352 535C339 537 326 535 313 532C300 529 287 525 274 534C261 543 248 565 235 568C222 571 209 555 196 547C183 539 170 539 156.8 539C143.7 539 130.3 539 117.2 545C104 551 91 563 78 567C65 571 52 567 39 562C26 557 13 551 6.5 548L0 545Z" fill="#a2ff70"></path></svg>